<svg width="33" height="33" viewBox="0 0 33 33" fill="none" xmlns="http://www.w3.org/2000/svg">
<g id="noun-closed-quote-4376423 (1) 7">
<path id="Vector" d="M18.3288 17.1633C18.1832 15.072 18.6604 12.9844 19.7 11.1639C20.697 9.47593 22.1149 8.0756 23.8154 7.10018C24.6981 6.58274 25.6383 6.17035 26.6171 5.8717C26.8711 5.79457 27.1275 5.72421 27.3862 5.66061V5.66051C27.6298 5.59165 27.8782 5.54041 28.1293 5.50743C28.5939 5.46468 29.0516 5.64289 29.3651 5.98846C29.6785 6.33402 29.8114 6.80691 29.7237 7.26517C29.6361 7.72343 29.3382 8.11391 28.9193 8.31941C28.7157 8.4046 28.5027 8.4654 28.2847 8.50042C27.7688 8.616 27.262 8.7694 26.7685 8.95923C24.8725 9.65146 23.2729 10.9758 22.2389 12.7091C22.4518 12.5853 22.6726 12.4753 22.8996 12.3797C23.8551 11.9859 24.8981 11.853 25.9221 11.9946C26.9458 12.1363 27.9136 12.5474 28.7263 13.186C29.8016 14.0422 30.545 15.2464 30.8286 16.5916C31.1122 17.9366 30.9183 19.3385 30.2802 20.556C29.6421 21.7736 28.5998 22.7307 27.3325 23.263C26.3402 23.6589 25.266 23.8051 24.2041 23.6887C23.1422 23.5724 22.125 23.1972 21.2421 22.596C20.4776 22.0513 19.8346 21.3537 19.354 20.5473C18.8762 19.7224 18.5524 18.8175 18.3982 17.8768C18.3685 17.6395 18.3448 17.4018 18.3291 17.1633L18.3288 17.1633ZM1.73141 17.0211C1.61421 14.9479 2.10879 12.886 3.15368 11.0913C4.16076 9.41714 5.58292 8.03111 7.28253 7.06751C8.16877 6.5537 9.11213 6.14562 10.0933 5.85171C10.3485 5.77511 10.6057 5.70615 10.8648 5.6446C11.1029 5.57628 11.3464 5.5289 11.5927 5.50312C11.9864 5.48099 12.3728 5.61624 12.6666 5.87921C12.9605 6.14218 13.1377 6.51116 13.1591 6.90488C13.1806 7.29868 13.0447 7.68475 12.7812 7.97812C12.6505 8.12422 12.4919 8.2427 12.3149 8.32682C12.101 8.41244 11.8782 8.4741 11.6507 8.51062C11.1363 8.62825 10.6311 8.78337 10.1392 8.97468C8.26018 9.67013 6.67613 10.988 5.65038 12.7089C5.86318 12.5849 6.08394 12.4748 6.31101 12.3795C7.26996 11.9844 8.31689 11.852 9.34398 11.9961C10.3711 12.1401 11.3412 12.5554 12.1545 13.1991C13.2323 14.0638 13.9733 15.2788 14.2486 16.6327C14.5239 17.9869 14.3162 19.3946 13.6617 20.6117C13.0072 21.8287 11.9471 22.778 10.6656 23.2947C9.66582 23.678 8.58707 23.8094 7.52453 23.6775C6.4619 23.5456 5.44806 23.1544 4.5724 22.5383C3.8109 21.9776 3.17485 21.2642 2.70466 20.4438C2.46124 20.0178 2.26337 19.5672 2.11415 19.0999C1.96688 18.6892 1.86311 18.2642 1.80434 17.8319C1.77071 17.5621 1.74654 17.2918 1.73183 17.0209L1.73141 17.0211Z" fill="#7064C4"/>
</g>
</svg>
