<svg width="33" height="34" viewBox="0 0 33 34" fill="none" xmlns="http://www.w3.org/2000/svg">
<g id="noun-closed-quote-4376423 (1) 6">
<path id="Vector" d="M14.6712 16.3164C14.8168 18.4711 14.3396 20.622 13.3 22.4976C12.303 24.2367 10.8851 25.6795 9.18464 26.6844C8.30194 27.2176 7.36169 27.6425 6.38294 27.9501C6.12888 28.0296 5.87248 28.1021 5.61379 28.1676V28.1677C5.37016 28.2387 5.12179 28.2915 4.87074 28.3255C4.40613 28.3695 3.94842 28.1859 3.63494 27.8298C3.3215 27.4738 3.18862 26.9866 3.27626 26.5144C3.36392 26.0423 3.66181 25.64 4.08075 25.4283C4.28431 25.3405 4.49732 25.2778 4.71528 25.2418C5.23124 25.1227 5.73803 24.9646 6.23155 24.7691C8.12754 24.0559 9.72707 22.6914 10.7611 20.9055C10.5482 21.0331 10.3274 21.1465 10.1004 21.245C9.14493 21.6507 8.10185 21.7876 7.07792 21.6417C6.05417 21.4958 5.08642 21.0722 4.27374 20.4142C3.19835 19.532 2.45497 18.2913 2.17139 16.9054C1.88781 15.5196 2.0817 14.0753 2.71977 12.8209C3.35785 11.5664 4.40016 10.5802 5.6675 10.0318C6.65975 9.62395 7.73398 9.47334 8.7959 9.59321C9.85775 9.71308 10.875 10.0997 11.7579 10.719C12.5224 11.2803 13.1654 11.999 13.646 12.8298C14.1238 13.6797 14.4476 14.6121 14.6018 15.5813C14.6315 15.8257 14.6552 16.0707 14.6709 16.3164L14.6712 16.3164ZM31.2686 16.4629C31.3858 18.5989 30.8912 20.7233 29.8463 22.5724C28.8392 24.2973 27.4171 25.7253 25.7175 26.7181C24.8312 27.2475 23.8879 27.6679 22.9067 27.9707C22.6515 28.0497 22.3943 28.1207 22.1352 28.1841C21.8971 28.2545 21.6536 28.3033 21.4073 28.3299C21.0136 28.3527 20.6272 28.2134 20.3334 27.9424C20.0395 27.6715 19.8623 27.2913 19.8409 26.8857C19.8194 26.4799 19.9553 26.0822 20.2188 25.7799C20.3495 25.6294 20.5081 25.5073 20.6851 25.4206C20.899 25.3324 21.1218 25.2689 21.3493 25.2313C21.8637 25.1101 22.3689 24.9502 22.8608 24.7531C24.7398 24.0366 26.3239 22.6788 27.3496 20.9057C27.1368 21.0335 26.9161 21.1469 26.689 21.2452C25.73 21.6522 24.6831 21.7886 23.656 21.6402C22.6289 21.4918 21.6588 21.0639 20.8455 20.4007C19.7677 19.5098 19.0267 18.258 18.7514 16.863C18.4761 15.4678 18.6838 14.0175 19.3383 12.7635C19.9928 11.5096 21.0529 10.5316 22.3344 9.9992C23.3342 9.60429 24.4129 9.46883 25.4755 9.60474C26.5381 9.74066 27.5519 10.1437 28.4276 10.7785C29.1891 11.3562 29.8251 12.0912 30.2953 12.9365C30.5388 13.3754 30.7366 13.8396 30.8858 14.3211C31.0331 14.7443 31.1369 15.1821 31.1957 15.6276C31.2293 15.9055 31.2535 16.1839 31.2682 16.4631L31.2686 16.4629Z" fill="#7064C4"/>
</g>
</svg>
